<svg width="40" height="62" viewBox="0 0 40 62" fill="none" xmlns="http://www.w3.org/2000/svg">
<path d="M20.0065 0C4.63955 0 -4.99348 16.6769 2.71294 30L20.0065 60L37.3001 30C44.9607 16.6769 35.3735 0 20.0065 0Z" fill="black"/>
<ellipse cx="20" cy="60.1429" rx="4" ry="1.14286" fill="black"/>
<g clip-path="url(#clip0)">
<path d="M28.9907 24.9784C28.9907 26.0767 28.9992 27.0792 28.9822 28.0904C28.9822 28.1863 28.8291 28.3171 28.7185 28.3781C27.1618 29.2237 25.4945 29.6944 23.7592 29.8862C21.9388 30.0867 20.1183 30.0518 18.3319 29.5724C14.5805 28.5437 11.6798 25.144 11.1183 21.2038C10.1826 14.535 14.8612 9.94101 19.7611 9.15645C22.2195 8.76417 24.6013 9.1303 26.9406 9.94973C27.4766 10.1328 28.004 10.342 28.5229 10.5687C28.642 10.621 28.7866 10.804 28.7866 10.9261C28.8121 11.8763 28.7951 12.8352 28.7951 13.8464C28.6164 13.7592 28.4803 13.7069 28.3527 13.6371C26.2431 12.4777 24.0144 11.7891 21.59 11.8239C17.9662 11.8763 14.8442 14.3781 14.1637 17.9784C13.2025 23.017 16.469 26.5911 20.4416 27.1315C23.3679 27.5325 26.0389 26.7828 28.5399 25.2486C28.6675 25.1701 28.7951 25.1004 28.9907 24.9784Z" fill="white"/>
<path d="M28.8809 22.1108C28.8809 22.6252 28.8894 23.0523 28.8724 23.4795C28.8724 23.5666 28.7873 23.6974 28.7107 23.741C27.12 24.6127 24.1512 24.9091 22.4328 23.6277C20.689 22.3201 20.051 20.5156 20.5103 18.3973C20.9442 16.401 22.2797 15.1719 24.2107 14.7011C25.7079 14.335 27.154 14.6575 28.5491 15.2503C28.6597 15.2939 28.7618 15.477 28.7788 15.599C28.8043 15.9826 28.7873 16.3749 28.7873 16.8456C28.6087 16.7584 28.4811 16.6974 28.3535 16.6364C27.086 16.0174 25.7845 15.6688 24.3809 16.0697C22.6795 16.5579 21.6843 18.1183 21.8459 20.0274C21.982 21.6314 23.2835 22.9303 24.9508 23.1395C26.1247 23.2877 27.2221 23.0174 28.2599 22.4595C28.43 22.3724 28.6086 22.259 28.8809 22.1108Z" fill="white"/>
</g>
<defs>
<clipPath id="clip0">
<rect width="18" height="21" fill="white" transform="translate(11 9)"/>
</clipPath>
</defs>
</svg>
