<svg width="72" height="113" viewBox="0 0 72 113" fill="none" xmlns="http://www.w3.org/2000/svg">
<g clip-path="url(#clip0)">
<path d="M0.5 0.5V94.98V111.92L35.74 94.98L70.99 111.92V94.98V0.5H0.5Z" stroke="#F14942" stroke-miterlimit="10"/>
<path d="M34.2392 36.14V39.51H25.1692V68.28H21.0192V39.51H11.9492V36.14H34.2392Z" stroke="#F14942" stroke-miterlimit="10"/>
<path d="M42.4898 55.33V68.28H38.3398V36.14H48.5498C52.2298 36.14 54.9798 37 56.7998 38.71C58.6198 40.43 59.5298 42.78 59.5298 45.76C59.5298 48.77 58.5898 51.12 56.6998 52.8C54.8198 54.49 52.0998 55.33 48.5398 55.33H42.4898ZM53.6398 50.27C54.7498 49.21 55.2998 47.7 55.2998 45.76C55.2998 43.75 54.7498 42.22 53.6398 41.18C52.5298 40.13 50.7098 39.61 48.1898 39.61H42.4898V51.87H48.1898C50.7098 51.87 52.5298 51.34 53.6398 50.27Z" stroke="#F14942" stroke-miterlimit="10"/>
</g>
<defs>
<clipPath id="clip0">
<rect width="71.49" height="112.72" fill="white"/>
</clipPath>
</defs>
</svg>
